<svg xmlns="http://www.w3.org/2000/svg" viewBox="0 0 165 40" style="width: 165px; height: 40px;"><defs><style>.a{fill:none;}.b{fill:#fff;}.c,.d,.e{fill:#f58220;}.d{opacity:0.6;}.d,.e{isolation:isolate;}.e{opacity:0.3;}</style></defs><rect class="a" width="165" height="40"/><path class="b" d="M47,31.69V8.31h13.1v2.94H50.36v6.84h8.88V21H50.36v7.7h9.75v3Z"/><path class="b" d="M75.55,31.69V11.26H68.28V8.31h17.9v2.94H78.91V31.69Z"/><path class="b" d="M95,31.69V8.31H98.3V31.69Z"/><path class="b" d="M115.26,31.69V21.91l-9.15-13.6H110l7,10.48,6.82-10.48h3.91l-9.11,13.6v9.78Z"/><path class="b" d="M130,31.69,140,8.31h3.52l9.88,23.38h-3.64l-2.38-5.9H135.94l-2.38,5.9Zm16.27-8.64-4.65-11.6L137,23.05Z"/><rect class="c" x="21.45" width="10.22" height="8.31"/><rect class="c" x="21.45" y="15.72" width="10.22" height="8.31"/><rect class="c" x="21.45" y="31.69" width="10.22" height="8.31"/><rect class="d" x="11.22" y="31.69" width="10.22" height="8.31"/><rect class="d" x="11.22" y="15.72" width="10.22" height="8.31"/><rect class="e" x="1" y="24.03" width="10.22" height="15.97"/></svg>